<?xml version="1.0" encoding="UTF-8" standalone="no"?>
<svg
   xmlns:dc="http://purl.org/dc/elements/1.1/"
   xmlns:cc="http://creativecommons.org/ns#"
   xmlns:rdf="http://www.w3.org/1999/02/22-rdf-syntax-ns#"
   xmlns:svg="http://www.w3.org/2000/svg"
   xmlns="http://www.w3.org/2000/svg"
   xmlns:xlink="http://www.w3.org/1999/xlink"
   id="svg8"
   version="1.1"
   viewBox="0 0 55.562499 55.562502"
   height="210"
   width="210">
  <defs
     id="defs2">
    <linearGradient
       id="linearGradient4563">
      <stop
         id="stop4559"
         offset="0"
         style="stop-color:#30497d;stop-opacity:1;" />
      <stop
         id="stop4561"
         offset="1"
         style="stop-color:#3c5a9c;stop-opacity:1" />
    </linearGradient>
    <linearGradient
       gradientUnits="userSpaceOnUse"
       y2="294.35416"
       x2="52.916668"
       y1="267.89581"
       x1="26.458334"
       id="linearGradient4565"
       xlink:href="#linearGradient4563" />
  </defs>
  <metadata
     id="metadata5">
    <rdf:RDF>
      <cc:Work
         rdf:about="">
        <dc:format>image/svg+xml</dc:format>
        <dc:type
           rdf:resource="http://purl.org/dc/dcmitype/StillImage" />
        <dc:title></dc:title>
      </cc:Work>
    </rdf:RDF>
  </metadata>
  <g
     transform="translate(0,-241.43748)"
     id="layer1">
    <path
       id="rect4551"
       transform="matrix(0.26458334,0,0,0.26458334,0,241.43748)"
       d="M 200.71484 15.285156 L 15.285156 200.71484 L 200.71484 200.71484 L 200.71484 15.285156 z "
       style="opacity:1;fill:#ff0000;fill-opacity:1;fill-rule:nonzero;stroke:none;stroke-width:4.68420935;stroke-linecap:round;stroke-linejoin:miter;stroke-miterlimit:4;stroke-dasharray:none;stroke-dashoffset:0;stroke-opacity:1" />
    <rect
       style="opacity:1;fill:url(#linearGradient4565);fill-opacity:1;fill-rule:nonzero;stroke:none;stroke-width:1.23936379;stroke-linecap:round;stroke-linejoin:miter;stroke-miterlimit:4;stroke-dasharray:none;stroke-dashoffset:0;stroke-opacity:1"
       id="rect4539"
       width="50.459812"
       height="50.459812"
       x="2.645838"
       y="244.08331" />
    <path
       transform="matrix(0.26458334,0,0,0.26458334,0,241.43748)"
       id="path4549"
       d="m 10,10 v 190.71484 h 5.285156 L 200.71484,15.285156 V 10 Z"
       style="opacity:1;fill:#3c5b9b;fill-opacity:1;fill-rule:nonzero;stroke:none;stroke-width:4.68420935;stroke-linecap:round;stroke-linejoin:miter;stroke-miterlimit:4;stroke-dasharray:none;stroke-dashoffset:0;stroke-opacity:1" />
    <path
       id="path4511"
       d="m 34.495988,249.49522 c -2.465536,0.0263 -5.463039,0.18244 -7.350458,1.41305 -1.234195,0.83354 -2.20594,2.10868 -2.820526,3.46527 -0.601988,1.32878 -0.608038,2.86168 -0.730213,4.31532 v 5.23229 h -6.183602 v 7.13492 h 6.183602 v 18.07515 h 7.610584 v -18.07515 h 5.707939 l 0.951324,-7.13492 h -6.659263 c -0.01241,-1.11371 0.08676,-1.90888 0,-2.90134 v -2.37831 c 0,-1.3176 1.060719,-2.37831 2.378309,-2.37831 h 2.853969 c 0.163077,0 0.321988,0.0162 0.475661,0.0475 0.153674,-0.0313 0.312587,-0.0475 0.475663,-0.0475 h 0.951322 v -6.61189 c 0,0 -1.868824,-0.1386 -3.844311,-0.15604 z"
       style="fill:#ffffff;fill-rule:evenodd;stroke:none;stroke-width:0.47566164px;stroke-linecap:butt;stroke-linejoin:miter;stroke-opacity:1;fill-opacity:1" />
  </g>
</svg>
